<?xml version="1.0" encoding="UTF-8"?>
<svg id="_Слой_1" data-name="Слой 1" xmlns="http://www.w3.org/2000/svg" viewBox="0 0 1920 1080">
  <defs>
    <style>
      .cls-1 {
        font-family: BellMT, 'Bell MT';
        font-size: 386.55px;
      }

      .cls-1, .cls-2 {
        fill: #fff;
      }

      .cls-2, .cls-3 {
        stroke-width: 0px;
      }

      .cls-3 {
        fill: #0a0a0a;
      }

      .cls-4 {
        letter-spacing: .04em;
      }
    </style>
  </defs>
  <rect class="cls-3" y=".77" width="1920" height="1079.23"/>
  <text class="cls-1" transform="translate(-10.21 475.47)"><tspan x="0" y="0">Couture </tspan></text>
  <path class="cls-2" d="m27.32,522.29c-20.69,17.92-16.35,35.05-6.2,48.15,12.07,15.5,31.43,23.66,51.11,23.53l1831.21-46.1L72.55,507.19c-16.43-.7-32.78,4.37-45.23,15.1Zm265.25,30.78c-.08,6.92-45.41,11.93-101.19,11.26-55.85-.67-101.05-6.76-100.96-13.68.08-6.85,45.41-11.85,101.26-11.19,55.78.67,100.98,6.76,100.89,13.6Z"/>
  <text class="cls-1" transform="translate(778.65 851.8)"><tspan x="0" y="0">Co</tspan><tspan class="cls-4" x="439.02" y="0">r</tspan><tspan x="607.56" y="0">ner</tspan></text>
</svg>