<?xml version="1.0" encoding="UTF-8"?>
<svg id="_Слой_1" data-name="Слой 1" xmlns="http://www.w3.org/2000/svg" viewBox="0 0 1920 1080">
  <defs>
    <style>
      .cls-1 {
        letter-spacing: .04em;
      }

      .cls-2 {
        font-family: BellMT, 'Bell MT';
        font-size: 388.58px;
      }

      .cls-2, .cls-3 {
        fill: #0a0a0a;
      }

      .cls-4 {
        fill: #fff;
      }

      .cls-4, .cls-3 {
        stroke-width: 0px;
      }

      .cls-5 {
        letter-spacing: 0em;
      }
    </style>
  </defs>
  <rect class="cls-4" y="2.81" width="1920" height="1077.19"/>
  <text class="cls-2" transform="translate(-10.09 475.16)"><tspan x="0" y="0">Couture </tspan></text>
  <path class="cls-3" d="m27.64,522.22c-20.79,18.01-16.43,35.24-6.23,48.4,12.13,15.58,31.6,23.78,51.38,23.66l1840.83-46.35L73.11,507.04c-16.51-.7-32.95,4.39-45.47,15.18Zm266.64,30.94c-.08,6.96-45.65,11.99-101.72,11.32-56.15-.67-101.58-6.79-101.49-13.75.08-6.88,45.65-11.92,101.79-11.24,56.07.67,101.51,6.79,101.42,13.68Z"/>
  <text class="cls-2" transform="translate(782.92 853.47)"><tspan x="0" y="0">Co</tspan><tspan class="cls-1" x="441.32" y="0">r</tspan><tspan class="cls-5" x="610.75" y="0">ner</tspan></text>
</svg>